{
	"asset":{
		"generator":"Khronos glTF Blender I/O v4.2.70",
		"version":"2.0"
	},
	"scene":0,
	"scenes":[
		{
			"name":"Scene",
			"nodes":[
				0,
				1,
				2,
				3,
				4,
				5
			]
		}
	],
	"nodes":[
		{
			"mesh":0,
			"name":"ground"
		},
		{
			"mesh":1,
			"name":"stump",
			"translation":[
				1.8291820287704468,
				-0.0350617915391922,
				1.4077658653259277
			]
		},
		{
			"mesh":2,
			"name":"lampstandard",
			"translation":[
				1.4566328525543213,
				0.7419573664665222,
				-1.2421854734420776
			]
		},
		{
			"mesh":3,
			"name":"transfer",
			"translation":[
				0,
				-0.15386037528514862,
				-2.024454116821289
			]
		},
		{
			"mesh":4,
			"name":"wood_labels",
			"rotation":[
				0,
				-0.6795810461044312,
				0,
				0.7336004376411438
			],
			"translation":[
				1.0414656400680542,
				0.3369494676589966,
				-1.1017495393753052
			]
		},
		{
			"mesh":5,
			"name":"stones",
			"rotation":[
				0,
				-0.6631670594215393,
				0,
				0.7484714388847351
			],
			"translation":[
				-2.210275650024414,
				-0.09778054058551788,
				1.091853141784668
			]
		}
	],
	"meshes":[
		{
			"name":"\u5e73\u9762",
			"primitives":[
				{
					"attributes":{
						"POSITION":0,
						"NORMAL":1,
						"TEXCOORD_0":2
					},
					"indices":3
				}
			]
		},
		{
			"name":"\u67f1\u4f53",
			"primitives":[
				{
					"attributes":{
						"POSITION":4,
						"NORMAL":5,
						"TEXCOORD_0":6
					},
					"indices":7
				}
			]
		},
		{
			"name":"\u7acb\u65b9\u4f53.007",
			"primitives":[
				{
					"attributes":{
						"POSITION":8,
						"NORMAL":9,
						"TEXCOORD_0":10
					},
					"indices":11
				}
			]
		},
		{
			"name":"\u7acb\u65b9\u4f53.005",
			"primitives":[
				{
					"attributes":{
						"POSITION":12,
						"NORMAL":13,
						"TEXCOORD_0":14
					},
					"indices":15
				}
			]
		},
		{
			"name":"\u7acb\u65b9\u4f53.003",
			"primitives":[
				{
					"attributes":{
						"POSITION":16,
						"NORMAL":17,
						"TEXCOORD_0":18
					},
					"indices":19
				}
			]
		},
		{
			"name":"\u7acb\u65b9\u4f53",
			"primitives":[
				{
					"attributes":{
						"POSITION":20,
						"NORMAL":21,
						"TEXCOORD_0":22
					},
					"indices":23
				}
			]
		}
	],
	"accessors":[
		{
			"bufferView":0,
			"componentType":5126,
			"count":4,
			"max":[
				2.9152615070343018,
				-0.1641632318496704,
				2.587462902069092
			],
			"min":[
				-2.8905835151672363,
				-0.1641632318496704,
				-2.6633987426757812
			],
			"type":"VEC3"
		},
		{
			"bufferView":1,
			"componentType":5126,
			"count":4,
			"type":"VEC3"
		},
		{
			"bufferView":2,
			"componentType":5126,
			"count":4,
			"type":"VEC2"
		},
		{
			"bufferView":3,
			"componentType":5123,
			"count":6,
			"type":"SCALAR"
		},
		{
			"bufferView":4,
			"componentType":5126,
			"count":204,
			"max":[
				0.5111481547355652,
				0.5818849802017212,
				0.25
			],
			"min":[
				-0.24373197555541992,
				-0.15000000596046448,
				-0.25
			],
			"type":"VEC3"
		},
		{
			"bufferView":5,
			"componentType":5126,
			"count":204,
			"type":"VEC3"
		},
		{
			"bufferView":6,
			"componentType":5126,
			"count":204,
			"type":"VEC2"
		},
		{
			"bufferView":7,
			"componentType":5123,
			"count":348,
			"type":"SCALAR"
		},
		{
			"bufferView":8,
			"componentType":5126,
			"count":752,
			"max":[
				0.12922051548957825,
				0.9445927143096924,
				3.4602437019348145
			],
			"min":[
				-2.7893083095550537,
				-0.9445927143096924,
				-0.10193540900945663
			],
			"type":"VEC3"
		},
		{
			"bufferView":9,
			"componentType":5126,
			"count":752,
			"type":"VEC3"
		},
		{
			"bufferView":10,
			"componentType":5126,
			"count":752,
			"type":"VEC2"
		},
		{
			"bufferView":11,
			"componentType":5123,
			"count":1320,
			"type":"SCALAR"
		},
		{
			"bufferView":12,
			"componentType":5126,
			"count":168,
			"max":[
				1.589754343032837,
				1.6448352336883545,
				0.3834383487701416
			],
			"min":[
				-1.589754343032837,
				-0.25613367557525635,
				-0.3834383487701416
			],
			"type":"VEC3"
		},
		{
			"bufferView":13,
			"componentType":5126,
			"count":168,
			"type":"VEC3"
		},
		{
			"bufferView":14,
			"componentType":5126,
			"count":168,
			"type":"VEC2"
		},
		{
			"bufferView":15,
			"componentType":5123,
			"count":318,
			"type":"SCALAR"
		},
		{
			"bufferView":16,
			"componentType":5126,
			"count":640,
			"max":[
				3.3310394287109375,
				0.39440980553627014,
				2.1432669162750244
			],
			"min":[
				-0.578835129737854,
				-0.5041844248771667,
				-0.07745593786239624
			],
			"type":"VEC3"
		},
		{
			"bufferView":17,
			"componentType":5126,
			"count":640,
			"type":"VEC3"
		},
		{
			"bufferView":18,
			"componentType":5126,
			"count":640,
			"type":"VEC2"
		},
		{
			"bufferView":19,
			"componentType":5123,
			"count":960,
			"type":"SCALAR"
		},
		{
			"bufferView":20,
			"componentType":5126,
			"count":194,
			"max":[
				1.8795875310897827,
				1.1963180303573608,
				0.3459390103816986
			],
			"min":[
				-3.5560171604156494,
				-0.13167375326156616,
				-5.185549736022949
			],
			"type":"VEC3"
		},
		{
			"bufferView":21,
			"componentType":5126,
			"count":194,
			"type":"VEC3"
		},
		{
			"bufferView":22,
			"componentType":5126,
			"count":194,
			"type":"VEC2"
		},
		{
			"bufferView":23,
			"componentType":5123,
			"count":288,
			"type":"SCALAR"
		}
	],
	"bufferViews":[
		{
			"buffer":0,
			"byteLength":48,
			"byteOffset":0,
			"target":34962
		},
		{
			"buffer":0,
			"byteLength":48,
			"byteOffset":48,
			"target":34962
		},
		{
			"buffer":0,
			"byteLength":32,
			"byteOffset":96,
			"target":34962
		},
		{
			"buffer":0,
			"byteLength":12,
			"byteOffset":128,
			"target":34963
		},
		{
			"buffer":0,
			"byteLength":2448,
			"byteOffset":140,
			"target":34962
		},
		{
			"buffer":0,
			"byteLength":2448,
			"byteOffset":2588,
			"target":34962
		},
		{
			"buffer":0,
			"byteLength":1632,
			"byteOffset":5036,
			"target":34962
		},
		{
			"buffer":0,
			"byteLength":696,
			"byteOffset":6668,
			"target":34963
		},
		{
			"buffer":0,
			"byteLength":9024,
			"byteOffset":7364,
			"target":34962
		},
		{
			"buffer":0,
			"byteLength":9024,
			"byteOffset":16388,
			"target":34962
		},
		{
			"buffer":0,
			"byteLength":6016,
			"byteOffset":25412,
			"target":34962
		},
		{
			"buffer":0,
			"byteLength":2640,
			"byteOffset":31428,
			"target":34963
		},
		{
			"buffer":0,
			"byteLength":2016,
			"byteOffset":34068,
			"target":34962
		},
		{
			"buffer":0,
			"byteLength":2016,
			"byteOffset":36084,
			"target":34962
		},
		{
			"buffer":0,
			"byteLength":1344,
			"byteOffset":38100,
			"target":34962
		},
		{
			"buffer":0,
			"byteLength":636,
			"byteOffset":39444,
			"target":34963
		},
		{
			"buffer":0,
			"byteLength":7680,
			"byteOffset":40080,
			"target":34962
		},
		{
			"buffer":0,
			"byteLength":7680,
			"byteOffset":47760,
			"target":34962
		},
		{
			"buffer":0,
			"byteLength":5120,
			"byteOffset":55440,
			"target":34962
		},
		{
			"buffer":0,
			"byteLength":1920,
			"byteOffset":60560,
			"target":34963
		},
		{
			"buffer":0,
			"byteLength":2328,
			"byteOffset":62480,
			"target":34962
		},
		{
			"buffer":0,
			"byteLength":2328,
			"byteOffset":64808,
			"target":34962
		},
		{
			"buffer":0,
			"byteLength":1552,
			"byteOffset":67136,
			"target":34962
		},
		{
			"buffer":0,
			"byteLength":576,
			"byteOffset":68688,
			"target":34963
		}
	],
	"buffers":[
		{
			"byteLength":69264,
			"uri":"transfer_array.bin"
		}
	]
}
