{
	"asset":{
		"generator":"Khronos glTF Blender I/O v4.2.70",
		"version":"2.0"
	},
	"scene":0,
	"scenes":[
		{
			"name":"Scene",
			"nodes":[
				0
			]
		}
	],
	"nodes":[
		{
			"mesh":0,
			"name":"String.b.C",
			"rotation":[
				0,
				0.7071066498756409,
				0,
				0.70710688829422
			],
			"translation":[
				-3.746142864227295,
				4.043131351470947,
				-0.6190696954727173
			]
		}
	],
	"meshes":[
		{
			"name":"String.b.C.413",
			"primitives":[
				{
					"attributes":{
						"POSITION":0,
						"TEXCOORD_0":1,
						"TEXCOORD_1":2,
						"COLOR_0":3
					},
					"indices":4
				}
			]
		}
	],
	"accessors":[
		{
			"bufferView":0,
			"componentType":5126,
			"count":20242,
			"max":[
				5.58617639541626,
				1.6771025657653809,
				7.754326820373535
			],
			"min":[
				-4.62737512588501,
				-4.043131351470947,
				-0.34881263971328735
			],
			"type":"VEC3"
		},
		{
			"bufferView":1,
			"componentType":5126,
			"count":20242,
			"type":"VEC2"
		},
		{
			"bufferView":2,
			"componentType":5126,
			"count":20242,
			"type":"VEC2"
		},
		{
			"bufferView":3,
			"componentType":5126,
			"count":20242,
			"type":"VEC3"
		},
		{
			"bufferView":4,
			"componentType":5123,
			"count":61626,
			"type":"SCALAR"
		}
	],
	"bufferViews":[
		{
			"buffer":0,
			"byteLength":242904,
			"byteOffset":0,
			"target":34962
		},
		{
			"buffer":0,
			"byteLength":161936,
			"byteOffset":242904,
			"target":34962
		},
		{
			"buffer":0,
			"byteLength":161936,
			"byteOffset":404840,
			"target":34962
		},
		{
			"buffer":0,
			"byteLength":242904,
			"byteOffset":566776,
			"target":34962
		},
		{
			"buffer":0,
			"byteLength":123252,
			"byteOffset":809680,
			"target":34963
		}
	],
	"buffers":[
		{
			"byteLength":932932,
			"uri":"little_room.bin"
		}
	]
}
