{
	"asset":{
		"generator":"Khronos glTF Blender I/O v4.2.70",
		"version":"2.0"
	},
	"extensionsUsed":[
		"KHR_texture_transform"
	],
	"extensionsRequired":[
		"KHR_texture_transform"
	],
	"scene":0,
	"scenes":[
		{
			"name":"Scene",
			"nodes":[
				0,
				1,
				2
			]
		}
	],
	"nodes":[
		{
			"name":"\u7a7a\u7269\u4f53",
			"rotation":[
				0.70710688829422,
				0,
				0,
				0.7071066498756409
			],
			"translation":[
				0.14508473873138428,
				0.6874299645423889,
				0
			]
		},
		{
			"mesh":0,
			"name":"coffee_cup"
		},
		{
			"mesh":1,
			"name":"wood_desk"
		}
	],
	"materials":[
		{
			"alphaMode":"BLEND",
			"doubleSided":true,
			"name":"\u6750\u8d28",
			"pbrMetallicRoughness":{
				"baseColorFactor":[
					0.10000000149011612,
					0.05000000074505806,
					0.019999999552965164,
					0.949999988079071
				],
				"metallicFactor":0,
				"roughnessFactor":0.10000000149011612
			}
		},
		{
			"doubleSided":true,
			"name":"\u6750\u8d28.001",
			"pbrMetallicRoughness":{
				"baseColorTexture":{
					"index":0
				},
				"metallicFactor":0,
				"roughnessFactor":0.20000000298023224
			}
		},
		{
			"doubleSided":true,
			"name":"Light tree wood",
			"normalTexture":{
				"extensions":{
					"KHR_texture_transform":{
						"offset":[
							0,
							0.8999999761581421
						],
						"scale":[
							0.10000002384185791,
							0.10000002384185791
						]
					}
				},
				"index":1,
				"texCoord":1
			},
			"pbrMetallicRoughness":{
				"baseColorTexture":{
					"extensions":{
						"KHR_texture_transform":{
							"offset":[
								0,
								0.8999999761581421
							],
							"scale":[
								0.10000002384185791,
								0.10000002384185791
							]
						}
					},
					"index":2,
					"texCoord":1
				},
				"metallicFactor":0,
				"metallicRoughnessTexture":{
					"extensions":{
						"KHR_texture_transform":{
							"offset":[
								0,
								0.8999999761581421
							],
							"scale":[
								0.10000002384185791,
								0.10000002384185791
							]
						}
					},
					"index":3,
					"texCoord":1
				}
			}
		}
	],
	"meshes":[
		{
			"name":"\u67f1\u4f53.002",
			"primitives":[
				{
					"attributes":{
						"POSITION":0,
						"NORMAL":1,
						"TEXCOORD_0":2
					},
					"indices":3,
					"material":0
				},
				{
					"attributes":{
						"POSITION":4,
						"NORMAL":5,
						"TEXCOORD_0":6
					},
					"indices":7,
					"material":1
				}
			]
		},
		{
			"name":"\u5e73\u9762",
			"primitives":[
				{
					"attributes":{
						"POSITION":8,
						"NORMAL":9,
						"TEXCOORD_0":10,
						"TEXCOORD_1":11
					},
					"indices":12,
					"material":2
				}
			]
		}
	],
	"textures":[
		{
			"sampler":0,
			"source":0
		},
		{
			"sampler":0,
			"source":1
		},
		{
			"sampler":0,
			"source":2
		},
		{
			"sampler":0,
			"source":3
		}
	],
	"images":[
		{
			"mimeType":"image/png",
			"name":"coffee_cup_Color",
			"uri":"coffee_cup_Color.png"
		},
		{
			"mimeType":"image/jpeg",
			"name":"woodentable02_normal",
			"uri":"woodentable02_normal.jpg"
		},
		{
			"mimeType":"image/jpeg",
			"name":"woodentable02_diffuseOriginal",
			"uri":"woodentable02_diffuseOriginal.jpg"
		},
		{
			"mimeType":"image/png",
			"name":"woodentable02_glossiness",
			"uri":"woodentable02_glossiness.png"
		}
	],
	"accessors":[
		{
			"bufferView":0,
			"componentType":5126,
			"count":5184,
			"max":[
				0.5287595391273499,
				1.2311391830444336,
				0.5287595391273499
			],
			"min":[
				-0.5287595391273499,
				1.2111058235168457,
				-0.5287595391273499
			],
			"type":"VEC3"
		},
		{
			"bufferView":1,
			"componentType":5126,
			"count":5184,
			"type":"VEC3"
		},
		{
			"bufferView":2,
			"componentType":5126,
			"count":5184,
			"type":"VEC2"
		},
		{
			"bufferView":3,
			"componentType":5123,
			"count":7776,
			"type":"SCALAR"
		},
		{
			"bufferView":4,
			"componentType":5126,
			"count":4672,
			"max":[
				1.0427685976028442,
				1.5337978601455688,
				0.5568535923957825
			],
			"min":[
				-0.5568313002586365,
				0.004075724631547928,
				-0.5568535923957825
			],
			"type":"VEC3"
		},
		{
			"bufferView":5,
			"componentType":5126,
			"count":4672,
			"type":"VEC3"
		},
		{
			"bufferView":6,
			"componentType":5126,
			"count":4672,
			"type":"VEC2"
		},
		{
			"bufferView":7,
			"componentType":5123,
			"count":22368,
			"type":"SCALAR"
		},
		{
			"bufferView":8,
			"componentType":5126,
			"count":24,
			"max":[
				3.840730667114258,
				0,
				3.840730667114258
			],
			"min":[
				-3.840730667114258,
				-0.9360600709915161,
				-3.840730667114258
			],
			"type":"VEC3"
		},
		{
			"bufferView":9,
			"componentType":5126,
			"count":24,
			"type":"VEC3"
		},
		{
			"bufferView":10,
			"componentType":5126,
			"count":24,
			"type":"VEC2"
		},
		{
			"bufferView":11,
			"componentType":5126,
			"count":24,
			"type":"VEC2"
		},
		{
			"bufferView":12,
			"componentType":5123,
			"count":36,
			"type":"SCALAR"
		}
	],
	"bufferViews":[
		{
			"buffer":0,
			"byteLength":62208,
			"byteOffset":0,
			"target":34962
		},
		{
			"buffer":0,
			"byteLength":62208,
			"byteOffset":62208,
			"target":34962
		},
		{
			"buffer":0,
			"byteLength":41472,
			"byteOffset":124416,
			"target":34962
		},
		{
			"buffer":0,
			"byteLength":15552,
			"byteOffset":165888,
			"target":34963
		},
		{
			"buffer":0,
			"byteLength":56064,
			"byteOffset":181440,
			"target":34962
		},
		{
			"buffer":0,
			"byteLength":56064,
			"byteOffset":237504,
			"target":34962
		},
		{
			"buffer":0,
			"byteLength":37376,
			"byteOffset":293568,
			"target":34962
		},
		{
			"buffer":0,
			"byteLength":44736,
			"byteOffset":330944,
			"target":34963
		},
		{
			"buffer":0,
			"byteLength":288,
			"byteOffset":375680,
			"target":34962
		},
		{
			"buffer":0,
			"byteLength":288,
			"byteOffset":375968,
			"target":34962
		},
		{
			"buffer":0,
			"byteLength":192,
			"byteOffset":376256,
			"target":34962
		},
		{
			"buffer":0,
			"byteLength":192,
			"byteOffset":376448,
			"target":34962
		},
		{
			"buffer":0,
			"byteLength":72,
			"byteOffset":376640,
			"target":34963
		}
	],
	"samplers":[
		{
			"magFilter":9729,
			"minFilter":9987
		}
	],
	"buffers":[
		{
			"byteLength":376712,
			"uri":"coffee_cup.bin"
		}
	]
}
