{
	"asset":{
		"generator":"Khronos glTF Blender I/O v4.2.69",
		"version":"2.0"
	},
	"scene":0,
	"scenes":[
		{
			"name":"Scene",
			"nodes":[
				0,
				1,
				2,
				3,
				4,
				5
			]
		}
	],
	"nodes":[
		{
			"mesh":0,
			"name":"fox _head"
		},
		{
			"mesh":1,
			"name":"fox_body"
		},
		{
			"mesh":2,
			"name":"tail"
		},
		{
			"mesh":3,
			"name":"fox_nose_01",
			"translation":[
				0,
				0.004463855177164078,
				0.6709501147270203
			]
		},
		{
			"mesh":4,
			"name":"fox_nose_02"
		},
		{
			"mesh":5,
			"name":"eye",
			"rotation":[
				-0.10476855933666229,
				0.10779835283756256,
				0.01142444834113121,
				0.9885709881782532
			],
			"translation":[
				0.4974622130393982,
				0.14713054895401,
				0.6542949676513672
			]
		}
	],
	"materials":[
		{
			"doubleSided":true,
			"name":"fox_head",
			"pbrMetallicRoughness":{
				"baseColorTexture":{
					"index":0
				},
				"metallicFactor":0,
				"roughnessFactor":0.5
			}
		},
		{
			"doubleSided":true,
			"name":"fox_body_material",
			"pbrMetallicRoughness":{
				"baseColorTexture":{
					"index":1
				},
				"metallicFactor":0,
				"roughnessFactor":0.5
			}
		},
		{
			"doubleSided":true,
			"name":"fox_tail_material",
			"pbrMetallicRoughness":{
				"baseColorTexture":{
					"index":2
				},
				"metallicFactor":0,
				"roughnessFactor":0.5
			}
		},
		{
			"doubleSided":true,
			"name":"white_material",
			"pbrMetallicRoughness":{
				"baseColorFactor":[
					0.800000011920929,
					0.800000011920929,
					0.800000011920929,
					1
				],
				"metallicFactor":0,
				"roughnessFactor":0.5
			}
		},
		{
			"doubleSided":true,
			"name":"black_material",
			"pbrMetallicRoughness":{
				"baseColorFactor":[
					0.01908744126558304,
					0.01908744126558304,
					0.01908744126558304,
					1
				],
				"metallicFactor":0,
				"roughnessFactor":0.3134714961051941
			}
		}
	],
	"meshes":[
		{
			"name":"\u7acb\u65b9\u4f53",
			"primitives":[
				{
					"attributes":{
						"POSITION":0,
						"NORMAL":1,
						"TEXCOORD_0":2,
						"COLOR_0":3,
						"COLOR_1":4
					},
					"indices":5,
					"material":0
				}
			]
		},
		{
			"name":"\u7acb\u65b9\u4f53.001",
			"primitives":[
				{
					"attributes":{
						"POSITION":6,
						"NORMAL":7,
						"TEXCOORD_0":8
					},
					"indices":9,
					"material":1
				}
			]
		},
		{
			"name":"NURBS\u8def\u5f84",
			"primitives":[
				{
					"attributes":{
						"POSITION":10,
						"NORMAL":11,
						"TEXCOORD_0":12
					},
					"indices":13,
					"material":2
				}
			]
		},
		{
			"name":"\u7acb\u65b9\u4f53.002",
			"primitives":[
				{
					"attributes":{
						"POSITION":14,
						"NORMAL":15,
						"TEXCOORD_0":16
					},
					"indices":17,
					"material":3
				}
			]
		},
		{
			"name":"\u7acb\u65b9\u4f53.003",
			"primitives":[
				{
					"attributes":{
						"POSITION":18,
						"NORMAL":19,
						"TEXCOORD_0":20
					},
					"indices":17,
					"material":4
				}
			]
		},
		{
			"name":"\u7acb\u65b9\u4f53.004",
			"primitives":[
				{
					"attributes":{
						"POSITION":21,
						"NORMAL":22,
						"TEXCOORD_0":23
					},
					"indices":17,
					"material":4
				}
			]
		}
	],
	"textures":[
		{
			"sampler":0,
			"source":0
		},
		{
			"sampler":0,
			"source":1
		},
		{
			"sampler":0,
			"source":2
		}
	],
	"images":[
		{
			"mimeType":"image/png",
			"name":"fox_head_color_map",
			"uri":"fox_head_color_map.png"
		},
		{
			"mimeType":"image/png",
			"name":"fox_body_color_map",
			"uri":"fox_body_color_map.png"
		},
		{
			"mimeType":"image/png",
			"name":"fox_tail_color_map",
			"uri":"fox_tail_color_map.png"
		}
	],
	"accessors":[
		{
			"bufferView":0,
			"componentType":5126,
			"count":2258,
			"max":[
				0.926160454750061,
				1.460076093673706,
				0.784953773021698
			],
			"min":[
				-0.9261605143547058,
				-0.523837149143219,
				-0.784953773021698
			],
			"type":"VEC3"
		},
		{
			"bufferView":1,
			"componentType":5126,
			"count":2258,
			"type":"VEC3"
		},
		{
			"bufferView":2,
			"componentType":5126,
			"count":2258,
			"type":"VEC2"
		},
		{
			"bufferView":3,
			"componentType":5121,
			"count":2258,
			"normalized":true,
			"type":"VEC4"
		},
		{
			"bufferView":4,
			"componentType":5126,
			"count":2258,
			"type":"VEC3"
		},
		{
			"bufferView":5,
			"componentType":5123,
			"count":13056,
			"type":"SCALAR"
		},
		{
			"bufferView":6,
			"componentType":5126,
			"count":1970,
			"max":[
				0.20519320666790009,
				-0.45708587765693665,
				0.21034304797649384
			],
			"min":[
				-0.20519320666790009,
				-1.4866375923156738,
				-0.3655150234699249
			],
			"type":"VEC3"
		},
		{
			"bufferView":7,
			"componentType":5126,
			"count":1970,
			"type":"VEC3"
		},
		{
			"bufferView":8,
			"componentType":5126,
			"count":1970,
			"type":"VEC2"
		},
		{
			"bufferView":9,
			"componentType":5123,
			"count":11136,
			"type":"SCALAR"
		},
		{
			"bufferView":10,
			"componentType":5126,
			"count":848,
			"max":[
				0.42045605182647705,
				-0.8066772222518921,
				-0.2389126718044281
			],
			"min":[
				-0.4248473644256592,
				-1.6519807577133179,
				-3.049365282058716
			],
			"type":"VEC3"
		},
		{
			"bufferView":11,
			"componentType":5126,
			"count":848,
			"type":"VEC3"
		},
		{
			"bufferView":12,
			"componentType":5126,
			"count":848,
			"type":"VEC2"
		},
		{
			"bufferView":13,
			"componentType":5123,
			"count":4596,
			"type":"SCALAR"
		},
		{
			"bufferView":14,
			"componentType":5126,
			"count":14,
			"max":[
				0.3205733001232147,
				0.2839483916759491,
				0.4030986428260803
			],
			"min":[
				-0.3205733001232147,
				-0.33820125460624695,
				-0.46078526973724365
			],
			"type":"VEC3"
		},
		{
			"bufferView":15,
			"componentType":5126,
			"count":14,
			"type":"VEC3"
		},
		{
			"bufferView":16,
			"componentType":5126,
			"count":14,
			"type":"VEC2"
		},
		{
			"bufferView":17,
			"componentType":5123,
			"count":36,
			"type":"SCALAR"
		},
		{
			"bufferView":18,
			"componentType":5126,
			"count":14,
			"max":[
				0.10150965303182602,
				0.19567114114761353,
				1.028651237487793
			],
			"min":[
				-0.10150963813066483,
				-0.06313984841108322,
				0.7523550391197205
			],
			"type":"VEC3"
		},
		{
			"bufferView":19,
			"componentType":5126,
			"count":14,
			"type":"VEC3"
		},
		{
			"bufferView":20,
			"componentType":5126,
			"count":14,
			"type":"VEC2"
		},
		{
			"bufferView":21,
			"componentType":5126,
			"count":14,
			"max":[
				0.06217002868652344,
				0.1580469310283661,
				0.08873263001441956
			],
			"min":[
				-0.06216990947723389,
				-0.1580469310283661,
				-0.08873263001441956
			],
			"type":"VEC3"
		},
		{
			"bufferView":22,
			"componentType":5126,
			"count":14,
			"type":"VEC3"
		},
		{
			"bufferView":23,
			"componentType":5126,
			"count":14,
			"type":"VEC2"
		}
	],
	"bufferViews":[
		{
			"buffer":0,
			"byteLength":27096,
			"byteOffset":0,
			"target":34962
		},
		{
			"buffer":0,
			"byteLength":27096,
			"byteOffset":27096,
			"target":34962
		},
		{
			"buffer":0,
			"byteLength":18064,
			"byteOffset":54192,
			"target":34962
		},
		{
			"buffer":0,
			"byteLength":9032,
			"byteOffset":72256,
			"target":34962
		},
		{
			"buffer":0,
			"byteLength":27096,
			"byteOffset":81288,
			"target":34962
		},
		{
			"buffer":0,
			"byteLength":26112,
			"byteOffset":108384,
			"target":34963
		},
		{
			"buffer":0,
			"byteLength":23640,
			"byteOffset":134496,
			"target":34962
		},
		{
			"buffer":0,
			"byteLength":23640,
			"byteOffset":158136,
			"target":34962
		},
		{
			"buffer":0,
			"byteLength":15760,
			"byteOffset":181776,
			"target":34962
		},
		{
			"buffer":0,
			"byteLength":22272,
			"byteOffset":197536,
			"target":34963
		},
		{
			"buffer":0,
			"byteLength":10176,
			"byteOffset":219808,
			"target":34962
		},
		{
			"buffer":0,
			"byteLength":10176,
			"byteOffset":229984,
			"target":34962
		},
		{
			"buffer":0,
			"byteLength":6784,
			"byteOffset":240160,
			"target":34962
		},
		{
			"buffer":0,
			"byteLength":9192,
			"byteOffset":246944,
			"target":34963
		},
		{
			"buffer":0,
			"byteLength":168,
			"byteOffset":256136,
			"target":34962
		},
		{
			"buffer":0,
			"byteLength":168,
			"byteOffset":256304,
			"target":34962
		},
		{
			"buffer":0,
			"byteLength":112,
			"byteOffset":256472,
			"target":34962
		},
		{
			"buffer":0,
			"byteLength":72,
			"byteOffset":256584,
			"target":34963
		},
		{
			"buffer":0,
			"byteLength":168,
			"byteOffset":256656,
			"target":34962
		},
		{
			"buffer":0,
			"byteLength":168,
			"byteOffset":256824,
			"target":34962
		},
		{
			"buffer":0,
			"byteLength":112,
			"byteOffset":256992,
			"target":34962
		},
		{
			"buffer":0,
			"byteLength":168,
			"byteOffset":257104,
			"target":34962
		},
		{
			"buffer":0,
			"byteLength":168,
			"byteOffset":257272,
			"target":34962
		},
		{
			"buffer":0,
			"byteLength":112,
			"byteOffset":257440,
			"target":34962
		}
	],
	"samplers":[
		{
			"magFilter":9729,
			"minFilter":9987
		}
	],
	"buffers":[
		{
			"byteLength":257552,
			"uri":"fox_material_added.bin"
		}
	]
}
